Coordinates
version=1
nRows=13
nColumns=34
inDegrees=yes

Units are S.I. units (second, meters, Newtons, ...)
If the header above contains a line with 'inDegrees', this indicates whether rotational values are in degrees (yes) or radians (no).

endheader
time	pelvis_tilt	pelvis_list	pelvis_rotation	pelvis_tx	pelvis_ty	pelvis_tz	hip_flexion_r	hip_adduction_r	hip_rotation_r	knee_angle_r	ankle_angle_r	subtalar_angle_r	mtp_angle_r	hip_flexion_l	hip_adduction_l	hip_rotation_l	knee_angle_l	ankle_angle_l	subtalar_angle_l	mtp_angle_l	lumbar_extension	lumbar_bending	lumbar_rotation	arm_flex_r	arm_add_r	arm_rot_r	elbow_flex_r	pro_sup_r	arm_flex_l	arm_add_l	arm_rot_l	elbow_flex_l	pro_sup_l
      3.23333330	      3.08111458	     -8.47395580	    -20.72315776	      3.88741166	      0.95534218	      1.37239209	     26.09311573	     13.16890204	     -9.21907853	     28.68818464	     -1.40694520	     -2.16924967	      0.00000000	     15.88661786	     10.62320535	      2.43941675	     10.79325463	     -4.34515624	    -12.93997536	      0.00000000	    -19.88893701	     -1.27500875	      3.47435285	     12.69523541	     17.41967637	     34.24278620	     85.93511788	    119.74817918	      5.37995157	     12.80629849	     29.48943705	     94.43023999	    119.74817918
      3.25000000	      3.01408818	     -8.37454021	    -21.33125553	      3.88767860	      0.95491185	      1.37311905	     26.07097683	     13.26881403	     -9.13126146	     28.67845414	     -1.24577674	     -1.59860683	      0.00000000	     16.21449064	     10.60215850	      2.05709973	     11.16836059	     -4.14652529	    -13.73981105	      0.00000000	    -19.65445746	     -1.56182376	      3.45979231	     12.41029654	     17.27082577	     34.75644593	     85.46582170	    119.74817918	      5.41204941	     12.32554552	     29.38682292	     94.96005182	    119.74817918
      3.26666670	      3.06984359	     -8.26428576	    -21.92847884	      3.88948432	      0.95468754	      1.37399414	     25.83686941	     13.25639926	     -9.30555240	     28.72249229	     -1.34283445	     -1.22863405	      0.00000000	     16.23338390	     10.66990340	      1.71376419	     11.40384989	     -3.94967871	    -14.45609749	      0.00000000	    -19.24373094	     -1.84815371	      3.59551973	     11.81825217	     17.15198334	     35.08651780	     84.89653123	    119.74817918	      5.26530361	     11.96115060	     29.47310498	     95.61736751	    119.74817918
      3.28333330	      3.19186129	     -8.04776249	    -22.46304776	      3.89159267	      0.95463458	      1.37505898	     25.45743362	     13.06843266	     -9.80718009	     28.58513971	     -1.80586366	     -1.12767801	      0.00000000	     16.20936765	     10.89724601	      1.52429916	     11.61882084	     -3.81694487	    -14.98242778	      0.00000000	    -18.84874978	     -2.25030086	      3.65503438	     11.23241720	     17.19988201	     35.24075547	     84.65736437	    119.74817918	      5.14878789	     11.63715511	     29.35881778	     96.00142969	    119.74817918
      3.30000000	      3.18099485	     -7.83516921	    -23.05515136	      3.89288295	      0.95419042	      1.37512699	     25.34453415	     12.90234172	    -10.34813374	     28.59287632	     -1.67656726	     -1.42161726	      0.00000000	     16.17640126	     11.08186391	      1.24462644	     11.43096642	     -3.87879666	    -15.85807970	      0.00000000	    -18.63644743	     -2.52723800	      3.85703062	     10.81293779	     17.31600947	     35.31660290	     84.30139753	    119.74817918	      5.09334499	     11.37982976	     29.32136100	     96.70616143	    119.74817918
      3.31666670	      3.02813729	     -7.29129981	    -23.67440850	      3.89452354	      0.95358074	      1.37628666	     25.42307067	     12.39297283	    -11.34557569	     28.64938187	     -1.36433008	     -1.33317068	      0.00000000	     16.23257933	     11.58442293	      1.86855501	     10.84681305	     -5.03168047	    -17.90399610	      0.00000000	    -18.07839079	     -3.34045491	      3.78348173	     10.21334692	     17.46922721	     35.95831463	     83.84677983	    119.74817918	      4.74481302	     11.03232736	     29.22686623	     96.91167680	    119.74817918
      3.33333330	      2.97813733	     -7.14698701	    -24.06196956	      3.89578964	      0.95359527	      1.37717535	     25.04493001	     12.36813016	    -11.94003299	     28.28646130	     -1.53550238	     -1.22052622	      0.00000000	     16.24728219	     11.63851468	      1.74417768	     10.82915026	     -4.89714394	    -18.17993632	      0.00000000	    -17.84839457	     -3.79550677	      3.83510420	      9.53088220	     17.45771279	     36.44438047	     83.62695044	    119.74817918	      4.54514555	     10.88407769	     29.37104164	     96.74492953	    119.74817918
      3.35000000	      2.99563600	     -6.83002141	    -24.35960030	      3.89715976	      0.95345894	      1.37767177	     25.13624699	     11.82997359	    -12.78467099	     28.72129926	     -1.04452203	      0.84543035	      0.00000000	     16.20243977	     11.93658277	      1.52929010	     10.55750033	     -5.17381677	    -18.67036363	      0.00000000	    -17.66260183	     -4.33804360	      3.84144098	      9.15349041	     17.22206252	     36.84279851	     83.30057466	    119.74817918	      4.34116027	     11.04616988	     29.47743499	     96.52073162	    119.74817918
      3.36666670	      2.93131829	     -6.84305901	    -24.50321272	      3.89729555	      0.95332381	      1.37737791	     25.31544749	     11.73166795	    -13.18914407	     29.09483255	     -1.61404223	      1.14081743	      0.00000000	     16.11543771	     11.87334808	      1.59169581	     10.32123467	     -5.12623301	    -18.68117003	      0.00000000	    -17.68678767	     -4.47267280	      3.80340566	      8.88490082	     17.04808887	     37.09006252	     83.14227601	    119.74817918	      4.60815031	     10.80624436	     29.57963478	     96.49292760	    119.74817918
      3.38333330	      2.94959648	     -6.87271921	    -24.51712994	      3.89749582	      0.95328174	      1.37667225	     25.44657677	     11.58231845	    -13.39650303	     29.48729865	     -2.17470812	      1.56660178	      0.00000000	     16.06437789	     11.89216330	      1.72451364	     10.24183091	     -5.19382840	    -18.58839398	      0.00000000	    -17.71901837	     -4.49665574	      3.83071084	      8.63749818	     16.91839865	     36.97150879	     83.10792296	    119.74817918	      5.00903655	     10.74622216	     29.34607802	     96.60231890	    119.74817918
      3.40000000	      3.01718888	     -6.85710636	    -24.33194373	      3.89792380	      0.95313951	      1.37594720	     25.38060362	     11.47794675	    -13.29259799	     29.58179468	     -2.39371072	      2.03122525	      0.00000000	     16.06444286	     12.01731472	      1.95325477	     10.41798442	     -5.17219337	    -18.54851248	      0.00000000	    -17.67929829	     -4.54092464	      3.78127953	      8.20987703	     16.77307875	     36.72783760	     83.21381090	    119.74817918	      5.30170284	     10.89958754	     29.03920184	     96.83340290	    119.74817918
      3.41666670	      3.11407745	     -7.06097603	    -24.00621891	      3.89866509	      0.95304971	      1.37513249	     25.21744547	     11.33218871	    -13.89669571	     29.81313377	     -1.96198250	      3.21937252	      0.00000000	     16.14124597	     11.99130285	      2.21183281	     11.01619204	     -4.94972170	    -18.68650602	      0.00000000	    -17.73043469	     -4.28773280	      3.73434198	      7.56829247	     16.57990158	     36.26089742	     83.49519396	    119.74817918	      5.61748155	     11.13667837	     28.58457089	     97.05268851	    119.74817918
      3.43333330	      3.25747728	     -7.11029555	    -23.87473483	      3.89831090	      0.95301583	      1.37392929	     25.30127628	     11.21027849	    -13.86847744	     30.26248623	     -2.40010414	      3.39965044	      0.00000000	     16.19216922	     12.04843863	      2.25280218	     11.33922662	     -5.08136565	    -18.55771938	      0.00000000	    -17.94804841	     -4.17573947	      3.69679885	      7.44426517	     16.39521601	     36.07582282	     83.57978825	    119.74817918	      6.27402267	     11.35128360	     28.12621528	     97.13361760	    119.74817918
